<?xml version="1.0" standalone="no"?>
<!DOCTYPE svg PUBLIC "-//W3C//DTD SVG 20010904//EN"
 "http://www.w3.org/TR/2001/REC-SVG-20010904/DTD/svg10.dtd">
<svg version="1.0" xmlns="http://www.w3.org/2000/svg"
 width="1276.000000pt" height="498.000000pt" viewBox="0 0 1276.000000 498.000000"
 preserveAspectRatio="xMidYMid meet">

<g transform="translate(0.000000,498.000000) scale(0.100000,-0.100000)"
fill="#000000" stroke="none">
<path d="M10300 4425 c-20 -25 -8 -54 86 -195 l89 -135 5 -900 5 -900 103 -3
102 -3 0 882 0 882 22 36 c12 20 59 93 105 162 46 70 83 136 83 146 0 41 -12
43 -306 43 -238 0 -283 -2 -294 -15z"/>
<path d="M1460 4217 l0 -133 -37 4 c-33 3 -53 -6 -143 -65 -259 -167 -315
-208 -318 -230 -3 -18 20 -37 140 -115 302 -199 305 -200 327 -189 11 6 22 11
25 11 3 0 6 -272 6 -605 l0 -605 100 0 100 0 0 459 c0 409 2 460 16 465 9 3
255 6 547 6 585 0 602 2 720 61 89 46 196 152 241 242 52 104 70 184 63 287
-13 211 -127 389 -308 480 -118 60 -116 60 -828 60 l-651 0 0 -133z m1355 -96
c75 -31 156 -106 192 -180 25 -50 28 -67 28 -156 0 -89 -3 -106 -28 -156 -34
-70 -109 -142 -185 -177 l-57 -27 -550 0 -550 0 -3 350 c-1 192 0 356 3 363 4
10 110 12 547 10 l543 -3 60 -24z"/>
<path d="M3740 3320 l0 -1030 850 0 850 0 0 -89 c0 -49 3 -96 6 -105 14 -37
62 -17 251 107 103 68 198 129 209 135 29 15 36 48 16 71 -26 29 -421 281
-441 281 -33 0 -41 -22 -41 -112 l0 -88 -745 0 -745 0 -2 928 -3 927 -102 3
-103 3 0 -1031z"/>
<path d="M7927 4318 c-8 -18 -41 -96 -74 -173 -34 -77 -147 -342 -252 -590
-106 -247 -205 -479 -221 -515 -83 -190 -310 -729 -310 -739 0 -7 34 -11 108
-11 l108 0 79 188 c44 103 84 197 90 209 l10 23 541 0 c422 0 544 -3 551 -12
5 -7 47 -102 93 -210 l84 -198 108 0 c66 0 108 4 108 10 0 6 -41 106 -91 223
-193 452 -323 757 -489 1147 -95 223 -199 466 -231 540 l-58 135 -70 3 -70 3
-14 -33z m125 -430 c126 -292 408 -958 408 -962 0 -3 -202 -6 -450 -6 -247 0
-450 3 -450 7 0 16 443 1043 449 1043 4 0 24 -37 43 -82z"/>
<path d="M7942 3413 c-127 -188 -242 -374 -242 -390 0 -41 12 -43 305 -43 295
0 306 2 304 44 0 12 -62 116 -137 231 -163 249 -167 252 -230 158z"/>
<path d="M6102 2668 c-14 -14 -17 -544 -4 -566 6 -9 33 -12 98 -10 l89 3 3
279 c2 197 -1 283 -9 292 -15 18 -160 19 -177 2z"/>
<path d="M6413 2672 c-13 -8 -21 -550 -9 -571 5 -7 42 -11 95 -11 83 0 89 1
95 23 10 39 7 527 -4 548 -9 16 -22 19 -88 19 -42 0 -82 -4 -89 -8z"/>
<path d="M3597 1586 c-15 -32 -14 -46 4 -46 9 0 39 53 39 70 0 23 -27 8 -43
-24z"/>
<path d="M1616 1581 c-28 -29 -20 -55 9 -31 12 10 18 10 30 0 12 -10 19 -10
28 -1 9 9 5 17 -14 36 l-25 25 -28 -29z"/>
<path d="M1055 1478 c-2 -7 -3 -89 -2 -183 2 -143 4 -170 17 -170 12 0 16 17
18 83 l3 82 104 0 c97 0 105 2 134 26 25 21 31 33 31 66 0 86 -40 108 -195
108 -75 0 -107 -4 -110 -12z m255 -48 c23 -23 26 -58 6 -86 -12 -16 -29 -19
-120 -22 l-106 -4 0 66 0 66 100 0 c87 0 103 -3 120 -20z"/>
<path d="M1582 1477 c-42 -16 -91 -63 -108 -104 -58 -137 81 -289 220 -243 81
26 126 89 127 174 1 86 -48 153 -129 176 -46 12 -68 12 -110 -3z m160 -65 c35
-33 41 -46 45 -89 9 -93 -51 -164 -139 -165 -114 -2 -185 103 -140 206 27 59
70 86 140 86 47 0 57 -4 94 -38z"/>
<path d="M1920 1305 l0 -185 155 0 c130 0 155 2 155 15 0 12 -24 15 -137 17
l-138 3 -3 168 c-2 139 -5 167 -17 167 -13 0 -15 -29 -15 -185z"/>
<path d="M2327 1363 c1 -71 2 -154 2 -185 l1 -58 155 0 c130 0 155 2 155 15 0
12 -24 15 -137 17 l-138 3 -3 68 -3 67 91 0 c73 0 90 3 90 15 0 12 -17 15 -90
15 l-90 0 0 70 0 70 140 0 c118 0 140 2 140 15 0 13 -24 15 -157 15 l-158 0 2
-127z"/>
<path d="M2925 1478 c-3 -8 -4 -90 -3 -183 l3 -170 153 -3 c147 -2 152 -2 152
18 0 19 -6 20 -135 20 l-135 0 -2 162 c-2 118 -6 162 -15 166 -7 2 -15 -3 -18
-10z"/>
<path d="M3330 1305 c0 -158 2 -185 15 -185 13 0 15 27 15 185 0 158 -2 185
-15 185 -13 0 -15 -27 -15 -185z"/>
<path d="M3455 1305 l0 -185 158 0 c131 0 157 2 157 15 0 12 -24 15 -137 17
l-138 3 -3 68 -3 67 91 0 c73 0 90 3 90 15 0 12 -17 15 -90 15 l-90 0 0 70 0
70 140 0 c118 0 140 2 140 15 0 13 -24 15 -157 15 l-158 0 0 -185z"/>
<path d="M3987 1475 c-156 -55 -164 -267 -12 -336 49 -23 80 -24 134 -4 36 12
41 12 41 0 0 -8 7 -15 15 -15 12 0 15 18 15 100 l0 100 -80 0 c-64 0 -80 -3
-80 -15 0 -12 14 -15 65 -15 l65 0 0 -50 c0 -46 -2 -51 -32 -66 -69 -36 -162
-10 -200 54 -24 40 -23 119 1 156 10 15 32 37 47 47 36 23 113 25 155 4 30
-16 55 -12 43 7 -10 16 -86 48 -114 47 -14 0 -42 -6 -63 -14z"/>
<path d="M4270 1305 l0 -185 160 0 c136 0 160 2 160 15 0 13 -22 15 -140 15
l-140 0 0 70 0 70 90 0 c73 0 90 3 90 15 0 12 -17 15 -90 15 l-90 0 0 70 0 70
140 0 c118 0 140 2 140 15 0 13 -24 15 -160 15 l-160 0 0 -185z"/>
<path d="M4802 1477 c-103 -38 -149 -154 -101 -255 51 -105 188 -132 280 -55
43 36 59 74 59 138 0 64 -16 102 -60 138 -51 43 -117 56 -178 34z m159 -64
c113 -107 14 -292 -135 -252 -91 24 -135 118 -97 203 26 59 69 86 139 86 47 0
57 -4 93 -37z"/>
<path d="M5140 1305 c0 -158 2 -185 15 -185 13 0 15 27 15 185 0 158 -2 185
-15 185 -13 0 -15 -27 -15 -185z"/>
<path d="M5324 1481 c-30 -13 -64 -59 -64 -88 0 -32 26 -80 49 -93 11 -5 57
-10 103 -10 100 0 128 -14 128 -63 0 -18 -4 -37 -8 -44 -12 -20 -60 -33 -117
-33 -68 0 -102 13 -117 45 -6 14 -17 25 -25 25 -24 0 -14 -31 22 -67 l35 -35
95 4 c87 3 97 5 121 29 20 20 27 38 28 69 1 35 -4 46 -32 71 -30 27 -38 29
-118 29 -77 0 -87 2 -109 25 -60 59 -7 115 109 115 60 0 97 -16 111 -48 5 -12
17 -22 26 -22 24 0 13 43 -18 72 -21 20 -36 23 -111 25 -48 2 -97 -1 -108 -6z"/>
<path d="M5855 1305 l0 -187 96 4 c84 3 102 7 136 30 48 31 83 97 83 153 0 56
-35 122 -83 153 -34 23 -52 27 -136 30 l-96 4 0 -187z m207 128 c52 -30 73
-68 73 -128 0 -95 -62 -148 -174 -149 l-66 -1 -3 154 -3 154 71 -6 c41 -3 85
-14 102 -24z"/>
<path d="M6240 1434 c0 -47 3 -55 17 -52 16 3 17 11 14 88 -1 11 -8 20 -16 20
-12 0 -15 -13 -15 -56z"/>
<path d="M6430 1313 c-41 -97 -76 -180 -78 -185 -2 -4 3 -8 12 -8 9 0 25 18
36 40 l20 40 96 0 96 0 15 -40 c15 -37 43 -56 43 -27 -1 21 -146 351 -156 354
-5 2 -43 -76 -84 -174z m127 13 c18 -43 33 -82 33 -87 0 -13 -137 -11 -146 2
-8 14 58 170 70 166 5 -2 24 -38 43 -81z"/>
<path d="M6885 1471 c-159 -72 -142 -292 26 -343 46 -13 120 1 152 29 28 26 4
37 -34 17 -19 -9 -52 -17 -75 -17 -145 0 -200 193 -78 274 36 23 113 25 155 4
30 -16 55 -12 43 7 -11 17 -87 48 -119 48 -16 0 -48 -9 -70 -19z"/>
<path d="M7297 1475 c-163 -57 -157 -291 8 -345 62 -20 175 11 175 48 0 15 -5
14 -76 -12 -55 -20 -107 -7 -152 37 -61 61 -55 153 12 216 37 35 122 41 170
13 39 -23 59 -12 32 17 -17 19 -80 41 -112 41 -11 -1 -36 -7 -57 -15z"/>
<path d="M7708 1480 c-46 -14 -85 -48 -107 -93 -74 -153 78 -317 231 -249 65
28 101 80 106 151 7 90 -35 158 -115 187 -43 15 -75 16 -115 4z m130 -50 c124
-76 74 -270 -70 -272 -152 -3 -214 186 -89 269 44 29 113 31 159 3z"/>
<path d="M8040 1305 c0 -158 2 -185 15 -185 13 0 15 22 16 138 l0 137 70 -137
c38 -76 73 -138 77 -138 4 0 39 62 77 138 l70 137 3 -137 c2 -114 5 -138 17
-138 13 0 15 29 15 185 0 143 -3 185 -13 185 -7 0 -48 -71 -91 -157 l-78 -158
-79 158 c-44 86 -84 157 -89 157 -6 0 -10 -69 -10 -185z"/>
<path d="M8490 1305 c0 -158 2 -185 15 -185 12 0 15 16 15 85 l0 85 110 0
c106 0 111 1 140 28 40 36 47 77 20 120 -28 45 -54 52 -186 52 l-114 0 0 -185z
m259 131 c13 -12 21 -31 21 -52 0 -53 -26 -64 -147 -64 l-103 0 0 63 c0 35 3
67 8 71 4 4 50 6 103 4 78 -2 101 -7 118 -22z"/>
<path d="M9051 1473 c-5 -10 -35 -79 -66 -153 -32 -74 -64 -150 -71 -167 -13
-31 -13 -33 4 -33 13 0 24 13 35 40 l15 40 100 0 99 0 16 -40 c9 -23 22 -40
31 -40 9 0 16 3 16 6 0 15 -154 364 -161 364 -5 0 -12 -8 -18 -17z m63 -153
c20 -46 36 -86 36 -87 0 -2 -38 -3 -84 -3 l-84 0 41 95 c22 53 44 92 48 88 4
-5 24 -46 43 -93z"/>
<path d="M9458 1480 c-72 -21 -128 -99 -128 -175 0 -123 133 -217 243 -172 32
14 37 14 37 1 0 -7 7 -14 15 -14 11 0 15 12 16 43 0 23 1 68 2 100 l2 57 -77
0 c-63 0 -78 -3 -78 -15 0 -12 13 -15 61 -15 l60 0 -3 -52 c-3 -47 -6 -54 -32
-67 -92 -44 -202 19 -213 120 -12 118 122 201 224 140 26 -17 33 -18 43 -6 9
11 6 17 -13 30 -49 32 -107 41 -159 25z"/>
<path d="M9740 1488 c0 -2 -1 -85 -3 -186 -2 -166 -1 -182 15 -182 16 0 18 16
20 149 l3 150 128 -150 c70 -82 132 -149 137 -149 6 0 10 68 10 185 0 156 -2
185 -15 185 -12 0 -15 -26 -17 -152 l-3 -151 -129 151 c-110 129 -145 165
-146 150z"/>
<path d="M10150 1305 l0 -185 155 0 c130 0 155 2 155 15 0 12 -24 15 -137 17
l-138 3 -3 68 -3 67 91 0 c73 0 90 3 90 15 0 12 -17 15 -90 15 l-91 0 3 68 3
67 138 3 c113 2 137 5 137 17 0 13 -25 15 -155 15 l-155 0 0 -185z"/>
<path d="M10550 1305 c0 -178 1 -185 20 -185 19 0 20 7 21 133 l0 132 67 -132
c37 -73 71 -133 77 -133 6 0 42 62 80 138 l70 137 3 -137 c2 -114 5 -138 17
-138 13 0 15 29 15 185 0 143 -3 185 -13 185 -7 0 -48 -71 -91 -157 l-78 -158
-79 158 c-49 97 -85 157 -94 157 -13 0 -15 -28 -15 -185z"/>
<path d="M11010 1305 l0 -185 160 0 c134 0 160 2 160 15 0 12 -25 15 -142 17
l-143 3 -3 68 -3 67 96 0 c78 0 95 3 95 15 0 12 -17 15 -95 15 l-96 0 3 68 3
67 143 3 c117 2 142 5 142 17 0 13 -26 15 -160 15 l-160 0 0 -185z"/>
<path d="M11420 1305 c0 -156 2 -185 15 -185 12 0 15 26 17 152 l3 152 129
-152 c70 -84 132 -152 136 -152 13 0 15 55 12 223 -2 119 -6 147 -17 147 -12
0 -15 -28 -17 -150 l-3 -150 -128 150 c-70 82 -132 150 -137 150 -6 0 -10 -71
-10 -185z"/>
<path d="M11830 1475 c0 -11 16 -15 68 -17 l67 -3 3 -167 c2 -139 5 -168 17
-168 12 0 15 29 17 168 l3 167 67 3 c47 2 68 7 72 17 5 13 -19 15 -154 15
-133 0 -160 -2 -160 -15z"/>
<path d="M5722 857 c-15 -42 -15 -47 1 -47 7 0 21 16 30 35 21 44 21 45 -1 45
-11 0 -22 -12 -30 -33z"/>
<path d="M2325 723 c85 -207 142 -333 151 -333 8 0 116 240 162 359 3 9 -1 12
-14 9 -13 -2 -35 -43 -79 -146 -33 -78 -64 -143 -69 -143 -5 0 -36 65 -70 145
-46 109 -65 146 -79 146 -16 0 -16 -3 -2 -37z"/>
<path d="M2730 575 l0 -185 160 0 c136 0 160 2 160 15 0 13 -22 15 -140 15
l-140 0 0 70 0 70 90 0 c73 0 90 3 90 15 0 12 -17 15 -90 15 l-90 0 0 70 0 70
140 0 c118 0 140 2 140 15 0 13 -24 15 -160 15 l-160 0 0 -185z"/>
<path d="M3140 576 c0 -179 1 -186 20 -186 18 0 20 7 20 85 l0 85 58 0 57 -1
70 -84 c50 -60 77 -84 93 -84 21 -1 15 9 -47 82 -55 63 -67 83 -53 85 52 9 64
15 82 45 28 45 25 81 -9 119 l-29 33 -131 3 -131 4 0 -186z m239 143 c55 -19
66 -65 26 -104 -22 -23 -31 -25 -125 -25 l-100 0 0 70 0 70 84 0 c45 0 97 -5
115 -11z"/>
<path d="M3640 753 c-53 -20 -79 -85 -55 -136 21 -46 51 -57 146 -57 72 0 82
-3 104 -25 30 -29 32 -55 6 -86 -15 -19 -30 -24 -84 -27 -82 -5 -135 11 -143
44 -4 15 -13 24 -26 24 -15 0 -18 -5 -13 -22 4 -13 18 -34 31 -48 22 -23 34
-25 119 -28 l95 -4 35 35 c39 39 44 70 20 118 -21 39 -50 49 -143 49 -94 0
-122 15 -122 64 0 48 29 69 99 74 73 5 129 -12 143 -44 6 -13 17 -24 25 -24
24 0 14 31 -21 66 -33 33 -35 34 -117 33 -46 0 -91 -3 -99 -6z"/>
<path d="M4172 623 c3 -158 11 -177 86 -214 75 -37 148 -14 200 61 20 30 22
45 22 161 0 108 -2 129 -15 129 -12 0 -15 -20 -15 -116 0 -132 -12 -169 -62
-198 -39 -24 -97 -24 -132 -1 -47 31 -56 62 -56 195 0 103 -2 120 -16 120 -13
0 -15 -18 -12 -137z"/>
<path d="M4579 748 c0 -12 0 -333 1 -350 0 -5 7 -8 15 -8 12 0 15 26 17 149
l3 150 128 -150 c70 -82 132 -149 137 -149 6 0 10 68 10 185 0 156 -2 185 -15
185 -12 0 -15 -26 -17 -152 l-3 -151 -129 151 c-71 84 -133 152 -138 152 -4 0
-8 -6 -9 -12z"/>
<path d="M4989 698 c0 -59 0 -220 1 -280 l0 -28 155 0 c131 0 155 2 155 15 0
13 -22 15 -140 15 l-140 0 0 70 0 70 90 0 c73 0 90 3 90 15 0 12 -17 15 -90
15 l-91 0 3 68 3 67 138 3 c113 2 137 5 137 17 0 13 -25 15 -155 15 l-155 0
-1 -62z"/>
<path d="M5580 575 l0 -185 155 0 c130 0 155 2 155 15 0 12 -24 15 -137 17
l-138 3 -3 68 -3 67 91 0 c73 0 90 3 90 15 0 12 -17 15 -90 15 l-91 0 3 68 3
67 142 3 c120 2 141 5 137 17 -5 12 -34 15 -160 15 l-154 0 0 -185z"/>
<path d="M6118 750 c-46 -14 -85 -48 -107 -93 -72 -149 71 -311 223 -253 53
20 76 43 53 52 -8 3 -27 -2 -41 -11 -14 -9 -45 -17 -70 -17 -150 -3 -211 186
-87 269 43 29 113 31 158 4 26 -17 33 -18 43 -6 9 11 6 17 -13 30 -49 32 -107
41 -159 25z"/>
<path d="M6512 747 c-103 -39 -149 -154 -101 -255 51 -105 188 -132 280 -55
43 37 59 74 59 141 0 50 -5 66 -30 100 -16 23 -43 48 -60 57 -41 21 -109 27
-148 12z m165 -69 c27 -27 36 -46 40 -81 7 -61 -1 -90 -37 -126 -62 -62 -156
-60 -216 5 -44 46 -52 98 -25 158 28 64 69 88 144 83 51 -3 62 -8 94 -39z"/>
<path d="M6848 598 c-2 -90 -2 -173 0 -185 3 -23 5 -23 158 -23 129 0 154 2
154 15 0 12 -24 15 -137 17 l-138 3 -3 168 c-2 137 -5 167 -17 167 -11 0 -15
-30 -17 -162z"/>
<path d="M7255 575 l0 -185 158 0 c133 0 157 2 157 15 0 13 -22 15 -140 15
l-140 0 0 70 0 70 90 0 c73 0 90 3 90 15 0 12 -17 15 -90 15 l-91 0 3 68 3 67
138 3 c113 2 137 5 137 17 0 13 -26 15 -157 15 l-158 0 0 -185z"/>
<path d="M7855 748 c-3 -8 -4 -90 -3 -183 3 -143 5 -170 18 -170 13 0 15 27
15 179 0 135 -3 180 -12 183 -7 3 -15 -2 -18 -9z"/>
<path d="M7980 575 c0 -156 2 -185 15 -185 12 0 15 26 17 152 l3 153 130 -153
c71 -83 135 -152 142 -152 10 0 13 40 13 185 0 158 -2 185 -15 185 -13 0 -15
-22 -16 -137 -1 -76 -1 -144 0 -150 4 -29 -20 -5 -139 137 -69 82 -131 149
-137 149 -10 1 -13 -42 -13 -184z"/>
<path d="M8512 747 c-42 -16 -91 -63 -108 -104 -60 -143 86 -294 230 -239 54
21 76 43 52 52 -9 3 -23 1 -31 -6 -24 -20 -83 -29 -123 -18 -87 24 -131 118
-93 202 34 79 124 109 208 70 44 -21 69 -5 30 20 -52 35 -109 43 -165 23z"/>
<path d="M8790 575 l0 -185 160 0 c136 0 160 2 160 15 0 13 -22 15 -140 15
l-140 0 0 170 c0 163 -1 170 -20 170 -19 0 -20 -7 -20 -185z"/>
<path d="M9200 639 c0 -136 11 -174 64 -214 72 -55 179 -35 227 41 21 35 24
53 28 167 3 111 1 127 -13 127 -13 0 -16 -14 -17 -87 -1 -158 -11 -194 -64
-229 -33 -22 -97 -21 -130 0 -53 35 -65 70 -65 199 0 97 -3 117 -15 117 -13 0
-15 -20 -15 -121z"/>
<path d="M9674 751 c-30 -13 -64 -59 -64 -88 0 -32 26 -80 49 -93 11 -5 57
-10 103 -10 100 0 128 -14 128 -63 0 -18 -4 -37 -8 -44 -12 -20 -60 -33 -117
-33 -68 0 -102 13 -117 45 -6 14 -17 25 -25 25 -24 0 -14 -31 22 -67 l35 -35
95 4 c88 3 97 5 122 31 41 40 39 99 -5 138 -30 27 -38 29 -118 29 -77 0 -87 2
-109 25 -30 29 -32 58 -6 84 52 52 231 32 231 -26 0 -7 9 -13 21 -13 16 0 19
4 14 23 -4 12 -18 33 -31 47 -22 22 -33 25 -112 27 -48 2 -97 -1 -108 -6z"/>
<path d="M10020 575 c0 -158 2 -185 15 -185 13 0 15 27 15 185 0 158 -2 185
-15 185 -13 0 -15 -27 -15 -185z"/>
<path d="M10150 752 c0 -24 150 -357 161 -357 7 0 34 52 61 115 116 271 109
250 89 250 -13 0 -33 -37 -81 -150 -35 -82 -67 -150 -70 -150 -3 0 -33 67 -67
148 -38 89 -68 148 -77 150 -9 2 -16 -1 -16 -6z"/>
<path d="M10570 575 l0 -185 160 0 c134 0 160 2 160 15 0 12 -25 15 -142 17
l-143 3 0 65 0 65 93 3 c73 2 92 6 92 17 0 12 -18 15 -95 15 l-96 0 3 68 3 67
143 3 c117 2 142 5 142 17 0 13 -26 15 -160 15 l-160 0 0 -185z"/>
</g>
</svg>
